<?xml version="1.0" encoding="UTF-8"?>
<svg width="1000px" height="204px" viewBox="0 0 1000 204" version="1.1" xmlns="http://www.w3.org/2000/svg" xmlns:xlink="http://www.w3.org/1999/xlink">
    <title>Group 3</title>
    <defs>
        <polygon id="path-1" points="128.581159 6.33689682 113.081159 37.3368968 144.081159 37.3368968"></polygon>
        <linearGradient x1="100%" y1="50%" x2="0%" y2="50%" id="linearGradient-3">
            <stop stop-color="#F2A500" offset="0%"></stop>
            <stop stop-color="#E16C00" offset="100%"></stop>
        </linearGradient>
    </defs>
    <g id="Page-1" stroke="none" stroke-width="1" fill="none" fill-rule="evenodd">
        <g id="Group-3" transform="translate(15.000000, 2.000000)">
            <g id="Group" transform="translate(-0.000000, 0.000000)">
                <g id="Group-Copy" transform="translate(-0.000000, -0.000000)">
                    <path d="M100,-8.66025404 L194.10254,45.669873 L194.10254,154.330127 L100,208.660254 L5.89745962,154.330127 L5.89745962,45.669873 L100,-8.66025404 Z" id="Polygon-Copy" stroke="#194B7D" stroke-width="15" fill="#194B7D" stroke-linejoin="round" transform="translate(100.000000, 100.000000) rotate(-270.000000) translate(-100.000000, -100.000000) "></path>
                    <g id="Group-2" transform="translate(30.710610, 53.534654)">
                        <polyline id="Path" stroke="#FFFFFF" stroke-width="15" stroke-linecap="round" stroke-linejoin="round" points="16 67.3664363 56.7332244 32.04614 82.9966591 61.3295203 124 25.3664363"></polyline>
                        <circle id="Oval" fill="#FFFFFF" cx="16" cy="67.3664363" r="16"></circle>
                        <mask id="mask-2" fill="white">
                            <use xlink:href="#path-1"></use>
                        </mask>
                        <use id="Path-3" stroke="#FFFFFF" stroke-width="5" fill="#FFFFFF" stroke-linejoin="round" transform="translate(128.581159, 21.836897) rotate(-310.000000) translate(-128.581159, -21.836897) " xlink:href="#path-1"></use>
                    </g>
                </g>
                <path d="M312.4,156.1 C322.4,156.1 330.9,154.575 337.9,151.525 C344.9,148.475 350.15,144.4 353.65,139.3 C357.15,134.2 358.9,128.5 358.9,122.2 C358.9,114.9 356.975,109.125 353.125,104.875 C349.275,100.625 344.725,97.525 339.475,95.575 C334.225,93.625 327.6,91.8 319.6,90.1 C312.5,88.6 307.35,87.15 304.15,85.75 C300.95,84.35 299.35,82.25 299.35,79.45 C299.35,76.65 300.7,74.375 303.4,72.625 C306.1,70.875 310.4,70 316.3,70 C325.7,70 335.4,72.7 345.4,78.1 L345.4,78.1 L354.55,56.05 C349.45,53.05 343.55,50.775 336.85,49.225 C330.15,47.675 323.35,46.9 316.45,46.9 C306.35,46.9 297.825,48.4 290.875,51.4 C283.925,54.4 278.7,58.475 275.2,63.625 C271.7,68.775 269.95,74.55 269.95,80.95 C269.95,88.25 271.85,94.05 275.65,98.35 C279.45,102.65 284,105.775 289.3,107.725 C294.6,109.675 301.2,111.5 309.1,113.2 C316.3,114.8 321.525,116.325 324.775,117.775 C328.025,119.225 329.65,121.45 329.65,124.45 C329.65,130.15 323.95,133 312.55,133 C306.55,133 300.45,132.05 294.25,130.15 C288.05,128.25 282.6,125.75 277.9,122.65 L277.9,122.65 L268.15,144.55 C273.15,148.05 279.65,150.85 287.65,152.95 C295.65,155.05 303.9,156.1 312.4,156.1 Z M429.5,154 L429.5,72.55 L461.6,72.55 L461.6,49 L367.55,49 L367.55,72.55 L399.8,72.55 L399.8,154 L429.5,154 Z M491.55,154 L499.8,133.6 L544.2,133.6 L552.45,154 L583.35,154 L536.85,49 L507.6,49 L461.25,154 L491.55,154 Z M535.5,111.7 L508.5,111.7 L522,78.1 L535.5,111.7 Z M644.95,154 L644.95,72.55 L677.05,72.55 L677.05,49 L583,49 L583,72.55 L615.25,72.55 L615.25,154 L644.95,154 Z M731.15,156.1 C741.15,156.1 749.65,154.575 756.65,151.525 C763.65,148.475 768.9,144.4 772.4,139.3 C775.9,134.2 777.65,128.5 777.65,122.2 C777.65,114.9 775.725,109.125 771.875,104.875 C768.025,100.625 763.475,97.525 758.225,95.575 C752.975,93.625 746.35,91.8 738.35,90.1 C731.25,88.6 726.1,87.15 722.9,85.75 C719.7,84.35 718.1,82.25 718.1,79.45 C718.1,76.65 719.45,74.375 722.15,72.625 C724.85,70.875 729.15,70 735.05,70 C744.45,70 754.15,72.7 764.15,78.1 L764.15,78.1 L773.3,56.05 C768.2,53.05 762.3,50.775 755.6,49.225 C748.9,47.675 742.1,46.9 735.2,46.9 C725.1,46.9 716.575,48.4 709.625,51.4 C702.675,54.4 697.45,58.475 693.95,63.625 C690.45,68.775 688.7,74.55 688.7,80.95 C688.7,88.25 690.6,94.05 694.4,98.35 C698.2,102.65 702.75,105.775 708.05,107.725 C713.35,109.675 719.95,111.5 727.85,113.2 C735.05,114.8 740.275,116.325 743.525,117.775 C746.775,119.225 748.4,121.45 748.4,124.45 C748.4,130.15 742.7,133 731.3,133 C725.3,133 719.2,132.05 713,130.15 C706.8,128.25 701.35,125.75 696.65,122.65 L696.65,122.65 L686.9,144.55 C691.9,148.05 698.4,150.85 706.4,152.95 C714.4,155.05 722.65,156.1 731.15,156.1 Z M827.4,154 L827.4,49 L797.7,49 L797.7,154 L827.4,154 Z M907.45,156.1 C915.25,156.1 923.05,154.95 930.85,152.65 C938.65,150.35 945.55,147.05 951.55,142.75 L951.55,142.75 L951.55,99.25 L925.3,99.25 L925.3,128.05 C920.3,130.35 914.95,131.5 909.25,131.5 C903.45,131.5 898.3,130.225 893.8,127.675 C889.3,125.125 885.8,121.575 883.3,117.025 C880.8,112.475 879.55,107.3 879.55,101.5 C879.55,92.4 882.3,85.125 887.8,79.675 C893.3,74.225 900.55,71.5 909.55,71.5 C919.45,71.5 927.95,75.4 935.05,83.2 L935.05,83.2 L953.95,66.1 C948.75,59.9 942.25,55.15 934.45,51.85 C926.65,48.55 917.85,46.9 908.05,46.9 C896.85,46.9 886.8,49.225 877.9,53.875 C869,58.525 862.05,65 857.05,73.3 C852.05,81.6 849.55,91 849.55,101.5 C849.55,112 852.05,121.4 857.05,129.7 C862.05,138 868.95,144.475 877.75,149.125 C886.55,153.775 896.45,156.1 907.45,156.1 Z" id="STATSIG" fill="#194B7D" fill-rule="nonzero"></path>
            </g>
        </g>
    </g>
</svg>